<?xml version="1.0" encoding="UTF-8"?>
<svg version="1.1" xmlns="http://www.w3.org/2000/svg" width="1280" height="791">
<path d="M0 0 C7.26 0 14.52 0 22 0 C22 2.31 22 4.62 22 7 C31.24 7 40.48 7 50 7 C50 9.31 50 11.62 50 14 C51.39025391 13.98259766 51.39025391 13.98259766 52.80859375 13.96484375 C54.00613281 13.95582031 55.20367188 13.94679687 56.4375 13.9375 C57.63246094 13.92589844 58.82742188 13.91429687 60.05859375 13.90234375 C63 14 63 14 64 15 C64 16.98 64 18.96 64 21 C68.29 21 72.58 21 77 21 C77 23.31 77 25.62 77 28 C79.31 28 81.62 28 84 28 C84 30.31 84 32.62 84 35 C86.31 35 88.62 35 91 35 C91 37.31 91 39.62 91 42 C93.31 42 95.62 42 98 42 C98 44.31 98 46.62 98 49 C100.31 49 102.62 49 105 49 C105 51.31 105 53.62 105 56 C109.62 56 114.24 56 119 56 C119.33 60.29 119.66 64.58 120 69 C121.98 69.33 123.96 69.66 126 70 C126.33 71.98 126.66 73.96 127 76 C131.29 76.33 135.58 76.66 140 77 C140 81.62 140 86.24 140 91 C142.31 91 144.62 91 147 91 C147 93.31 147 95.62 147 98 C149.31 98 151.62 98 154 98 C154 100.31 154 102.62 154 105 C158.62 105 163.24 105 168 105 C168 107.31 168 109.62 168 112 C170.31 112 172.62 112 175 112 C175 114.31 175 116.62 175 119 C186.22 119 197.44 119 209 119 C209 116.69 209 114.38 209 112 C213.62 112 218.24 112 223 112 C223 109.69 223 107.38 223 105 C225.31 105 227.62 105 230 105 C230 102.69 230 100.38 230 98 C234.62 98 239.24 98 244 98 C244 95.69 244 93.38 244 91 C253.24 91 262.48 91 272 91 C272 88.69 272 86.38 272 84 C300.05 84 328.1 84 357 84 C357 86.31 357 88.62 357 91 C359.31 91 361.62 91 364 91 C364 93.31 364 95.62 364 98 C368.62 98 373.24 98 378 98 C378 100.31 378 102.62 378 105 C380.31 105 382.62 105 385 105 C385 107.31 385 109.62 385 112 C387.31 112 389.62 112 392 112 C392 114.31 392 116.62 392 119 C396.62 119 401.24 119 406 119 C406 121.31 406 123.62 406 126 C408.31 126 410.62 126 413 126 C413 128.31 413 130.62 413 133 C417.29 133 421.58 133 426 133 C426 135.31 426 137.62 426 140 C465.27 140 504.54 140 545 140 C545 142.31 545 144.62 545 147 C547.31 147 549.62 147 552 147 C552 149.31 552 151.62 552 154 C554.31 154 556.62 154 559 154 C559 156.31 559 158.62 559 161 C561.31 161 563.62 161 566 161 C566 163.31 566 165.62 566 168 C568.31 168 570.62 168 573 168 C573 170.31 573 172.62 573 175 C577.62 175 582.24 175 587 175 C587 177.31 587 179.62 587 182 C589.31 182 591.62 182 594 182 C594 184.31 594 186.62 594 189 C596.31 189 598.62 189 601 189 C601 191.64 601 194.28 601 197 C605.62 197 610.24 197 615 197 C615 199.31 615 201.62 615 204 C619.62 204 624.24 204 629 204 C629 206.31 629 208.62 629 211 C631.31 211 633.62 211 636 211 C636 213.31 636 215.62 636 218 C640.62 218 645.24 218 650 218 C650 220.31 650 222.62 650 225 C652.31 225 654.62 225 657 225 C657 229.62 657 234.24 657 239 C659.31 239 661.62 239 664 239 C664 241.31 664 243.62 664 246 C666.31 246 668.62 246 671 246 C671 248.31 671 250.62 671 253 C673.31 253 675.62 253 678 253 C678 257.62 678 262.24 678 267 C675.69 267 673.38 267 671 267 C671 269.31 671 271.62 671 274 C666.38 274 661.76 274 657 274 C657 271.69 657 269.38 657 267 C650.07 267 643.14 267 636 267 C636 269.31 636 271.62 636 274 C601.35 274 566.7 274 531 274 C531 271.69 531 269.38 531 267 C394.71 267 258.42 267 118 267 C118 269.31 118 271.62 118 274 C88.63 274 59.26 274 29 274 C29 276.31 29 278.62 29 281 C-5.65 281 -40.3 281 -76 281 C-76 283.31 -76 285.62 -76 288 C-90.52 288 -105.04 288 -120 288 C-120 290.31 -120 292.62 -120 295 C-140.13 295 -160.26 295 -181 295 C-181 297.31 -181 299.62 -181 302 C-197.17 302 -213.34 302 -230 302 C-230 304.31 -230 306.62 -230 309 C-252.77 309 -275.54 309 -299 309 C-299 310.98 -299 312.96 -299 315 C-300 316 -300 316 -302.24623108 316.12025452 C-303.23884445 316.11803391 -304.23145782 316.11581329 -305.25415039 316.11352539 C-306.37523697 316.11344986 -307.49632355 316.11337433 -308.65138245 316.11329651 C-310.48103798 316.10555458 -310.48103798 316.10555458 -312.34765625 316.09765625 C-313.58921982 316.0962413 -314.83078339 316.09482635 -316.10997009 316.09336853 C-319.41605491 316.08870591 -322.72207146 316.07971497 -326.02813721 316.06866455 C-329.3996115 316.05844827 -332.77109283 316.05387045 -336.14257812 316.04882812 C-342.76173775 316.03777395 -349.38086493 316.02101736 -356 316 C-356 313.69 -356 311.38 -356 309 C-399.56 309 -443.12 309 -488 309 C-488 311.31 -488 313.62 -488 316 C-504.5 316 -521 316 -538 316 C-538 313.69 -538 311.38 -538 309 C-547.24 309 -556.48 309 -566 309 C-566 304.05 -566 299.1 -566 294 C-563.69 294 -561.38 294 -559 294 C-559 291.69 -559 289.38 -559 287 C-554.38 287 -549.76 287 -545 287 C-545 284.69 -545 282.38 -545 280 C-542.69 280 -540.38 280 -538 280 C-538 277.69 -538 275.38 -538 273 C-535.69 273 -533.38 273 -531 273 C-531 270.69 -531 268.38 -531 266 C-526.38 266 -521.76 266 -517 266 C-517 263.69 -517 261.38 -517 259 C-514.69 259 -512.38 259 -510 259 C-510 256.69 -510 254.38 -510 252 C-505.38 252 -500.76 252 -496 252 C-496 249.69 -496 247.38 -496 245 C-484.12 245 -472.24 245 -460 245 C-460 247.31 -460 249.62 -460 252 C-453.4 252 -446.8 252 -440 252 C-440 249.69 -440 247.38 -440 245 C-426.14 245 -412.28 245 -398 245 C-398 242.69 -398 240.38 -398 238 C-393.38 238 -388.76 238 -384 238 C-384 235.69 -384 233.38 -384 231 C-380.04 231 -376.08 231 -372 231 C-372 229.02 -372 227.04 -372 225 C-368.99686252 223.49843126 -366.20932478 223.90718796 -362.875 223.9375 C-361.59367188 223.94652344 -360.31234375 223.95554687 -358.9921875 223.96484375 C-357.51105469 223.98224609 -357.51105469 223.98224609 -356 224 C-356 221.69 -356 219.38 -356 217 C-353.69 217 -351.38 217 -349 217 C-349 214.69 -349 212.38 -349 210 C-346.69 210 -344.38 210 -342 210 C-342 205.38 -342 200.76 -342 196 C-339.69 196 -337.38 196 -335 196 C-335 193.69 -335 191.38 -335 189 C-333.35 189 -331.7 189 -330 189 C-330 187.02 -330 185.04 -330 183 C-327.69 182.67 -325.38 182.34 -323 182 C-323 180.02 -323 178.04 -323 176 C-322.34 176 -321.68 176 -321 176 C-321 173.36 -321 170.72 -321 168 C-318.69 168 -316.38 168 -314 168 C-314 165.69 -314 163.38 -314 161 C-311.69 161 -309.38 161 -307 161 C-307 158.69 -307 156.38 -307 154 C-304.69 154 -302.38 154 -300 154 C-300 151.69 -300 149.38 -300 147 C-297.69 147 -295.38 147 -293 147 C-293 144.69 -293 142.38 -293 140 C-291.02 140 -289.04 140 -287 140 C-287 137.69 -287 135.38 -287 133 C-284.69 133 -282.38 133 -280 133 C-280 130.69 -280 128.38 -280 126 C-277.69 126 -275.38 126 -273 126 C-273 123.69 -273 121.38 -273 119 C-268.38 119 -263.76 119 -259 119 C-259 116.69 -259 114.38 -259 112 C-235.9 112 -212.8 112 -189 112 C-189 109.69 -189 107.38 -189 105 C-184.38 105 -179.76 105 -175 105 C-175 102.69 -175 100.38 -175 98 C-170.38 98 -165.76 98 -161 98 C-161 95.69 -161 93.38 -161 91 C-158.69 91 -156.38 91 -154 91 C-154 88.69 -154 86.38 -154 84 C-151.69 84 -149.38 84 -147 84 C-147 79.38 -147 74.76 -147 70 C-144.69 70 -142.38 70 -140 70 C-140 67.69 -140 65.38 -140 63 C-137.69 63 -135.38 63 -133 63 C-133 60.69 -133 58.38 -133 56 C-130.69 56 -128.38 56 -126 56 C-126 53.69 -126 51.38 -126 49 C-123.69 49 -121.38 49 -119 49 C-119 46.69 -119 44.38 -119 42 C-116.69 42 -114.38 42 -112 42 C-112 39.69 -112 37.38 -112 35 C-107.38 35 -102.76 35 -98 35 C-98 32.69 -98 30.38 -98 28 C-93.38 28 -88.76 28 -84 28 C-84 25.69 -84 23.38 -84 21 C-77.07 21 -70.14 21 -63 21 C-63 18.69 -63 16.38 -63 14 C-56.07 14 -49.14 14 -42 14 C-42 11.69 -42 9.38 -42 7 C-28.14 7 -14.28 7 0 7 C0 4.69 0 2.38 0 0 Z " fill="#FFF5F5" transform="translate(570,129)"/>
<path d="M0 0 C4.29 0 8.58 0 13 0 C13 2.31 13 4.62 13 7 C8.38 7.33 3.76 7.66 -1 8 C-1 10.31 -1 12.62 -1 15 C-3.31 15 -5.62 15 -8 15 C-8 17.31 -8 19.62 -8 22 C-10.31 22 -12.62 22 -15 22 C-15 26.29 -15 30.58 -15 35 C-17.31 35 -19.62 35 -22 35 C-22 37.31 -22 39.62 -22 42 C-24.31 42 -26.62 42 -29 42 C-29 46.62 -29 51.24 -29 56 C-30.98 56 -32.96 56 -35 56 C-34.9690625 57.4540625 -34.9690625 57.4540625 -34.9375 58.9375 C-35 62 -35 62 -36 63 C-37.99958364 63.04080783 -40.00045254 63.04254356 -42 63 C-41.9690625 64.4540625 -41.9690625 64.4540625 -41.9375 65.9375 C-42 69 -42 69 -43 70 C-45.18639453 70.07258946 -47.37500389 70.08373783 -49.5625 70.0625 C-50.76003906 70.05347656 -51.95757812 70.04445313 -53.19140625 70.03515625 C-54.58166016 70.01775391 -54.58166016 70.01775391 -56 70 C-55.9690625 71.423125 -55.9690625 71.423125 -55.9375 72.875 C-56 76 -56 76 -57 78 C-54.69 78 -52.38 78 -50 78 C-50 82.62 -50 87.24 -50 92 C-47.69 92 -45.38 92 -43 92 C-43 94.31 -43 96.62 -43 99 C-40.69 99 -38.38 99 -36 99 C-36 101.31 -36 103.62 -36 106 C-33.69 106 -31.38 106 -29 106 C-29 108.31 -29 110.62 -29 113 C-26.69 113 -24.38 113 -22 113 C-22 115.31 -22 117.62 -22 120 C-19.69 120 -17.38 120 -15 120 C-15 124.62 -15 129.24 -15 134 C-10.38 134 -5.76 134 -1 134 C-1 136.31 -1 138.62 -1 141 C3.62 141 8.24 141 13 141 C13 145.62 13 150.24 13 155 C26.86 155 40.72 155 55 155 C55 159.62 55 164.24 55 169 C48.07 169 41.14 169 34 169 C34 166.69 34 164.38 34 162 C17.83 162 1.66 162 -15 162 C-15 164.31 -15 166.62 -15 169 C-17.31 169 -19.62 169 -22 169 C-22 171.31 -22 173.62 -22 176 C-24.31 176 -26.62 176 -29 176 C-29 178.31 -29 180.62 -29 183 C-31.31 183 -33.62 183 -36 183 C-36 185.31 -36 187.62 -36 190 C-38.31 190 -40.62 190 -43 190 C-43 192.31 -43 194.62 -43 197 C-45.31 197 -47.62 197 -50 197 C-50 199.31 -50 201.62 -50 204 C-52.31 204 -54.62 204 -57 204 C-57 208.62 -57 213.24 -57 218 C-59.31 218 -61.62 218 -64 218 C-64 220.31 -64 222.62 -64 225 C-61.69 225 -59.38 225 -57 225 C-57 227.31 -57 229.62 -57 232 C-54.69 232 -52.38 232 -50 232 C-50 234.31 -50 236.62 -50 239 C-47.69 239 -45.38 239 -43 239 C-43 241.31 -43 243.62 -43 246 C-38.38 246 -33.76 246 -29 246 C-29 243.69 -29 241.38 -29 239 C-22.07 239 -15.14 239 -8 239 C-8 236.69 -8 234.38 -8 232 C1.24 232 10.48 232 20 232 C20 234.31 20 236.62 20 239 C22.31 239 24.62 239 27 239 C27 236.69 27 234.38 27 232 C29.31 232 31.62 232 34 232 C34 229.69 34 227.38 34 225 C50.17 225 66.34 225 83 225 C83 227.31 83 229.62 83 232 C99.17 232 115.34 232 132 232 C132 229.69 132 227.38 132 225 C138.93 225 145.86 225 153 225 C153 222.69 153 220.38 153 218 C224.61 218 296.22 218 370 218 C370 213.38 370 208.76 370 204 C376.93 204 383.86 204 391 204 C391 201.69 391 199.38 391 197 C386.38 197 381.76 197 377 197 C377 194.69 377 192.38 377 190 C372.38 190 367.76 190 363 190 C363 185.38 363 180.76 363 176 C360.69 176 358.38 176 356 176 C356 173.69 356 171.38 356 169 C353.69 169 351.38 169 349 169 C349 166.69 349 164.38 349 162 C344.38 162 339.76 162 335 162 C335 157.38 335 152.76 335 148 C330.38 148 325.76 148 321 148 C321 145.69 321 143.38 321 141 C318.69 141 316.38 141 314 141 C314 138.69 314 136.38 314 134 C318.62 134 323.24 134 328 134 C328 136.31 328 138.62 328 141 C332.62 141 337.24 141 342 141 C342 143.31 342 145.62 342 148 C346.62 148 351.24 148 356 148 C356 150.31 356 152.62 356 155 C360.62 155 365.24 155 370 155 C370 157.31 370 159.62 370 162 C374.62 162 379.24 162 384 162 C384 164.31 384 166.62 384 169 C395.55 169 407.1 169 419 169 C419 171.31 419 173.62 419 176 C430.55 176 442.1 176 454 176 C454 173.69 454 171.38 454 169 C458.62 169 463.24 169 468 169 C468 166.69 468 164.38 468 162 C472.62 162 477.24 162 482 162 C482 159.69 482 157.38 482 155 C484.31 155 486.62 155 489 155 C489 152.69 489 150.38 489 148 C493.62 148 498.24 148 503 148 C503 145.69 503 143.38 503 141 C505.31 141 507.62 141 510 141 C510 138.69 510 136.38 510 134 C512.31 134 514.62 134 517 134 C517 131.69 517 129.38 517 127 C519.31 127 521.62 127 524 127 C524 124.69 524 122.38 524 120 C528.62 120 533.24 120 538 120 C538 122.31 538 124.62 538 127 C535.69 127 533.38 127 531 127 C531 131.62 531 136.24 531 141 C528.69 141 526.38 141 524 141 C524 143.31 524 145.62 524 148 C521.69 148 519.38 148 517 148 C517 150.31 517 152.62 517 155 C512.38 155 507.76 155 503 155 C503 157.31 503 159.62 503 162 C498.38 162 493.76 162 489 162 C489 164.31 489 166.62 489 169 C486.69 169 484.38 169 482 169 C482 171.31 482 173.62 482 176 C479.69 176 477.38 176 475 176 C475 180.62 475 185.24 475 190 C472.69 190 470.38 190 468 190 C468 192.31 468 194.62 468 197 C463.38 197 458.76 197 454 197 C454 201.62 454 206.24 454 211 C463.24 211 472.48 211 482 211 C482 213.31 482 215.62 482 218 C523.58 218 565.16 218 608 218 C608 215.69 608 213.38 608 211 C612.62 211 617.24 211 622 211 C622 206.38 622 201.76 622 197 C626.62 197 631.24 197 636 197 C636 201.62 636 206.24 636 211 C640.62 211 645.24 211 650 211 C650 213.31 650 215.62 650 218 C684.65 218 719.3 218 755 218 C755 215.69 755 213.38 755 211 C757.64 210.67 760.28 210.34 763 210 C763 205.38 763 200.76 763 196 C760.69 196 758.38 196 756 196 C756 193.69 756 191.38 756 189 C751.38 189 746.76 189 742 189 C742 186.69 742 184.38 742 182 C739.69 182 737.38 182 735 182 C735 179.69 735 177.38 735 175 C730.38 175 725.76 175 721 175 C721 172.69 721 170.38 721 168 C716.38 168 711.76 168 707 168 C707 165.69 707 163.38 707 161 C704.69 161 702.38 161 700 161 C699.67 158.69 699.34 156.38 699 154 C697.02 153.67 695.04 153.34 693 153 C692.67 151.02 692.34 149.04 692 147 C687.71 146.67 683.42 146.34 679 146 C678.67 144.02 678.34 142.04 678 140 C676.02 139.67 674.04 139.34 672 139 C671.67 137.02 671.34 135.04 671 133 C669.02 132.67 667.04 132.34 665 132 C664.67 130.02 664.34 128.04 664 126 C662.02 125.67 660.04 125.34 658 125 C657.67 123.02 657.34 121.04 657 119 C655.02 118.67 653.04 118.34 651 118 C650.67 116.02 650.34 114.04 650 112 C611.06 111.67 572.12 111.34 532 111 C531.67 107.04 531.34 103.08 531 99 C526.71 99 522.42 99 518 99 C517.67 96.69 517.34 94.38 517 92 C515.02 92 513.04 92 511 92 C510.67 89.69 510.34 87.38 510 85 C507.69 85 505.38 85 503 85 C503 82.69 503 80.38 503 78 C502.14277344 78.02320313 501.28554688 78.04640625 500.40234375 78.0703125 C494.19626131 78.16826645 488.8428778 78.17409407 483 76 C482.67 72.04 482.34 68.08 482 64 C480.60974609 64.01740234 480.60974609 64.01740234 479.19140625 64.03515625 C477.99386719 64.04417969 476.79632812 64.05320312 475.5625 64.0625 C474.36753906 64.07410156 473.17257812 64.08570313 471.94140625 64.09765625 C469 64 469 64 468 63 C468 61.02 468 59.04 468 57 C440.28 57 412.56 57 384 57 C384 58.98 384 60.96 384 63 C360.41761516 64.19388403 360.41761516 64.19388403 349 64 C349.0309375 65.4540625 349.0309375 65.4540625 349.0625 66.9375 C349 70 349 70 348 71 C346.00041636 71.04080783 343.99954746 71.04254356 342 71 C342.0309375 72.4540625 342.0309375 72.4540625 342.0625 73.9375 C342 77 342 77 341 78 C339.00041636 78.04080783 336.99954746 78.04254356 335 78 C335 79.98 335 81.96 335 84 C330.38 84.33 325.76 84.66 321 85 C321 86.65 321 88.3 321 90 C316.38 90 311.76 90 307 90 C307 90.66 307 91.32 307 92 C304.69 92 302.38 92 300 92 C300 94.31 300 96.62 300 99 C295.38 99 290.76 99 286 99 C286 101.31 286 103.62 286 106 C283.69 106 281.38 106 279 106 C279 108.31 279 110.62 279 113 C276.69 113 274.38 113 272 113 C272 115.31 272 117.62 272 120 C267.38 120 262.76 120 258 120 C258 122.31 258 124.62 258 127 C255.69 127 253.38 127 251 127 C251 129.31 251 131.62 251 134 C248.69 134 246.38 134 244 134 C244 136.31 244 138.62 244 141 C239.38 141 234.76 141 230 141 C230 143.31 230 145.62 230 148 C227.69 148 225.38 148 223 148 C223 150.31 223 152.62 223 155 C213.76 155 204.52 155 195 155 C195 157.31 195 159.62 195 162 C183.45 162 171.9 162 160 162 C160 159.69 160 157.38 160 155 C162.31 155 164.62 155 167 155 C167 152.69 167 150.38 167 148 C173.93 148 180.86 148 188 148 C188 145.69 188 143.38 188 141 C194.93 141 201.86 141 209 141 C209 138.69 209 136.38 209 134 C213.62 134 218.24 134 223 134 C223 131.69 223 129.38 223 127 C227.62 127 232.24 127 237 127 C237 124.69 237 122.38 237 120 C239.31 120 241.62 120 244 120 C244 117.69 244 115.38 244 113 C248.62 113 253.24 113 258 113 C258 110.69 258 108.38 258 106 C260.31 106 262.62 106 265 106 C265 103.69 265 101.38 265 99 C267.31 99 269.62 99 272 99 C272 94.38 272 89.76 272 85 C272.66 85 273.32 85 274 85 C274 82.36 274 79.72 274 77 C271.03 77 268.06 77 265 77 C265 75.02 265 73.04 265 71 C262.69 70.67 260.38 70.34 258 70 C258 68.02 258 66.04 258 64 C255.69 63.67 253.38 63.34 251 63 C251 58.71 251 54.42 251 50 C248.69 49.67 246.38 49.34 244 49 C244 47.02 244 45.04 244 43 C242.68 42.67 241.36 42.34 240 42 C243.96 42 247.92 42 252 42 C252 46.62 252 51.24 252 56 C254.31 56 256.62 56 259 56 C259 58.31 259 60.62 259 63 C261.31 63 263.62 63 266 63 C266 65.31 266 67.62 266 70 C270.62 70 275.24 70 280 70 C280 72.31 280 74.62 280 77 C282.31 77 284.62 77 287 77 C287 79.31 287 81.62 287 84 C298.22 84 309.44 84 321 84 C321 81.69 321 79.38 321 77 C325.62 77 330.24 77 335 77 C335 74.69 335 72.38 335 70 C337.31 70 339.62 70 342 70 C342 67.69 342 65.38 342 63 C346.62 63 351.24 63 356 63 C356 60.69 356 58.38 356 56 C365.24 56 374.48 56 384 56 C384 53.69 384 51.38 384 49 C412.05 49 440.1 49 469 49 C469 51.31 469 53.62 469 56 C471.31 56 473.62 56 476 56 C476 58.31 476 60.62 476 63 C480.62 63 485.24 63 490 63 C490 65.31 490 67.62 490 70 C492.31 70 494.62 70 497 70 C497 72.31 497 74.62 497 77 C499.31 77 501.62 77 504 77 C504 79.31 504 81.62 504 84 C508.62 84 513.24 84 518 84 C518 86.31 518 88.62 518 91 C520.31 91 522.62 91 525 91 C525 93.31 525 95.62 525 98 C529.29 98 533.58 98 538 98 C538 100.31 538 102.62 538 105 C577.27 105 616.54 105 657 105 C657 107.31 657 109.62 657 112 C659.31 112 661.62 112 664 112 C664 114.31 664 116.62 664 119 C666.31 119 668.62 119 671 119 C671 121.31 671 123.62 671 126 C673.31 126 675.62 126 678 126 C678 128.31 678 130.62 678 133 C680.31 133 682.62 133 685 133 C685 135.31 685 137.62 685 140 C689.62 140 694.24 140 699 140 C699 142.31 699 144.62 699 147 C701.31 147 703.62 147 706 147 C706 149.31 706 151.62 706 154 C708.31 154 710.62 154 713 154 C713 156.64 713 159.28 713 162 C717.62 162 722.24 162 727 162 C727 164.31 727 166.62 727 169 C731.62 169 736.24 169 741 169 C741 171.31 741 173.62 741 176 C743.31 176 745.62 176 748 176 C748 178.31 748 180.62 748 183 C752.62 183 757.24 183 762 183 C762 185.31 762 187.62 762 190 C764.31 190 766.62 190 769 190 C769 194.62 769 199.24 769 204 C771.31 204 773.62 204 776 204 C776 206.31 776 208.62 776 211 C778.31 211 780.62 211 783 211 C783 213.31 783 215.62 783 218 C785.31 218 787.62 218 790 218 C790 222.62 790 227.24 790 232 C787.69 232 785.38 232 783 232 C783 234.31 783 236.62 783 239 C778.38 239 773.76 239 769 239 C769 236.69 769 234.38 769 232 C762.07 232 755.14 232 748 232 C748 234.31 748 236.62 748 239 C713.35 239 678.7 239 643 239 C643 236.69 643 234.38 643 232 C506.71 232 370.42 232 230 232 C230 234.31 230 236.62 230 239 C200.63 239 171.26 239 141 239 C141 241.31 141 243.62 141 246 C106.35 246 71.7 246 36 246 C36 248.31 36 250.62 36 253 C21.48 253 6.96 253 -8 253 C-8 255.31 -8 257.62 -8 260 C-28.13 260 -48.26 260 -69 260 C-69 262.31 -69 264.62 -69 267 C-85.17 267 -101.34 267 -118 267 C-118 269.31 -118 271.62 -118 274 C-140.77 274 -163.54 274 -187 274 C-187 275.98 -187 277.96 -187 280 C-188 281 -188 281 -190.24623108 281.12025452 C-191.23884445 281.11803391 -192.23145782 281.11581329 -193.25415039 281.11352539 C-194.37523697 281.11344986 -195.49632355 281.11337433 -196.65138245 281.11329651 C-198.48103798 281.10555458 -198.48103798 281.10555458 -200.34765625 281.09765625 C-201.58921982 281.0962413 -202.83078339 281.09482635 -204.10997009 281.09336853 C-207.41605491 281.08870591 -210.72207146 281.07971497 -214.02813721 281.06866455 C-217.3996115 281.05844827 -220.77109283 281.05387045 -224.14257812 281.04882812 C-230.76173775 281.03777395 -237.38086493 281.02101736 -244 281 C-244 278.69 -244 276.38 -244 274 C-287.56 274 -331.12 274 -376 274 C-376 276.31 -376 278.62 -376 281 C-392.5 281 -409 281 -426 281 C-426 278.69 -426 276.38 -426 274 C-435.24 274 -444.48 274 -454 274 C-454 269.05 -454 264.1 -454 259 C-451.69 259 -449.38 259 -447 259 C-447 256.69 -447 254.38 -447 252 C-442.38 252 -437.76 252 -433 252 C-433 249.69 -433 247.38 -433 245 C-430.69 245 -428.38 245 -426 245 C-426 242.69 -426 240.38 -426 238 C-423.69 238 -421.38 238 -419 238 C-419 235.69 -419 233.38 -419 231 C-414.38 231 -409.76 231 -405 231 C-405 228.69 -405 226.38 -405 224 C-402.69 224 -400.38 224 -398 224 C-398 221.69 -398 219.38 -398 217 C-393.38 217 -388.76 217 -384 217 C-384 214.69 -384 212.38 -384 210 C-372.12 210 -360.24 210 -348 210 C-348 212.31 -348 214.62 -348 217 C-341.4 217 -334.8 217 -328 217 C-328 214.69 -328 212.38 -328 210 C-314.14 210 -300.28 210 -286 210 C-286 207.69 -286 205.38 -286 203 C-281.38 203 -276.76 203 -272 203 C-272 200.69 -272 198.38 -272 196 C-268.04 196 -264.08 196 -260 196 C-260 194.02 -260 192.04 -260 190 C-256.99686252 188.49843126 -254.20932478 188.90718796 -250.875 188.9375 C-249.59367188 188.94652344 -248.31234375 188.95554687 -246.9921875 188.96484375 C-245.51105469 188.98224609 -245.51105469 188.98224609 -244 189 C-244 186.69 -244 184.38 -244 182 C-241.69 182 -239.38 182 -237 182 C-237 179.69 -237 177.38 -237 175 C-234.69 175 -232.38 175 -230 175 C-230 170.38 -230 165.76 -230 161 C-227.69 161 -225.38 161 -223 161 C-223 158.69 -223 156.38 -223 154 C-221.35 154 -219.7 154 -218 154 C-218 152.02 -218 150.04 -218 148 C-215.69 147.67 -213.38 147.34 -211 147 C-211 145.02 -211 143.04 -211 141 C-210.34 141 -209.68 141 -209 141 C-209 138.36 -209 135.72 -209 133 C-206.69 133 -204.38 133 -202 133 C-202 130.69 -202 128.38 -202 126 C-199.69 126 -197.38 126 -195 126 C-195 123.69 -195 121.38 -195 119 C-192.69 119 -190.38 119 -188 119 C-188 116.69 -188 114.38 -188 112 C-185.69 112 -183.38 112 -181 112 C-181 109.69 -181 107.38 -181 105 C-179.02 105 -177.04 105 -175 105 C-175 102.69 -175 100.38 -175 98 C-172.69 98 -170.38 98 -168 98 C-168 95.69 -168 93.38 -168 91 C-165.69 91 -163.38 91 -161 91 C-161 88.69 -161 86.38 -161 84 C-156.38 84 -151.76 84 -147 84 C-147 81.69 -147 79.38 -147 77 C-123.9 77 -100.8 77 -77 77 C-77 74.69 -77 72.38 -77 70 C-72.38 70 -67.76 70 -63 70 C-63 67.69 -63 65.38 -63 63 C-58.38 63 -53.76 63 -49 63 C-49 60.69 -49 58.38 -49 56 C-46.69 56 -44.38 56 -42 56 C-42 53.69 -42 51.38 -42 49 C-39.69 49 -37.38 49 -35 49 C-35 44.38 -35 39.76 -35 35 C-32.69 35 -30.38 35 -28 35 C-28 32.69 -28 30.38 -28 28 C-25.69 28 -23.38 28 -21 28 C-21 25.69 -21 23.38 -21 21 C-18.69 21 -16.38 21 -14 21 C-14 18.69 -14 16.38 -14 14 C-11.69 14 -9.38 14 -7 14 C-7 11.69 -7 9.38 -7 7 C-4.69 7 -2.38 7 0 7 C0 4.69 0 2.38 0 0 Z " fill="#FDD3D3" transform="translate(458,164)"/>
<path d="M0 0 C1.98 0 3.96 0 6 0 C6.33 1.98 6.66 3.96 7 6 C27.46 6 47.92 6 69 6 C69 10.95 69 15.9 69 21 C71.31 21 73.62 21 76 21 C76 23.31 76 25.62 76 28 C78.31 28 80.62 28 83 28 C83 30.31 83 32.62 83 35 C85.31 35 87.62 35 90 35 C90 37.31 90 39.62 90 42 C92.31 42 94.62 42 97 42 C97 44.31 97 46.62 97 49 C101.62 49 106.24 49 111 49 C111 53.62 111 58.24 111 63 C108.69 63 106.38 63 104 63 C104 65.31 104 67.62 104 70 C101.69 70 99.38 70 97 70 C97 72.31 97 74.62 97 77 C94.69 77 92.38 77 90 77 C90 79.31 90 81.62 90 84 C87.69 84 85.38 84 83 84 C83 86.31 83 88.62 83 91 C78.38 91 73.76 91 69 91 C69 93.31 69 95.62 69 98 C62.07 98 55.14 98 48 98 C48 100.31 48 102.62 48 105 C36.45 105 24.9 105 13 105 C13 102.69 13 100.38 13 98 C10.69 98 8.38 98 6 98 C6 102.62 6 107.24 6 112 C10.62 112 15.24 112 20 112 C20 114.31 20 116.62 20 119 C26.93 119 33.86 119 41 119 C41 116.69 41 114.38 41 112 C43.31 112 45.62 112 48 112 C48 116.62 48 121.24 48 126 C52.62 126 57.24 126 62 126 C62 130.62 62 135.24 62 140 C59.69 140 57.38 140 55 140 C55 142.31 55 144.62 55 147 C52.69 147 50.38 147 48 147 C48 151.62 48 156.24 48 161 C45.69 161 43.38 161 41 161 C41 163.31 41 165.62 41 168 C36.38 168 31.76 168 27 168 C27 170.31 27 172.62 27 175 C22.38 175 17.76 175 13 175 C13 177.31 13 179.62 13 182 C-12.41 182 -37.82 182 -64 182 C-64 184.31 -64 186.62 -64 189 C-77.86 189 -91.72 189 -106 189 C-106 186.69 -106 184.38 -106 182 C-117.55 182 -129.1 182 -141 182 C-141 177.38 -141 172.76 -141 168 C-145.62 168 -150.24 168 -155 168 C-155 170.31 -155 172.62 -155 175 C-157.31 175 -159.62 175 -162 175 C-162 177.31 -162 179.62 -162 182 C-166.62 182 -171.24 182 -176 182 C-176 184.31 -176 186.62 -176 189 C-195.47 189 -214.94 189 -235 189 C-235 191.31 -235 193.62 -235 196 C-247.21 196 -259.42 196 -272 196 C-272 193.69 -272 191.38 -272 189 C-278.93 189 -285.86 189 -293 189 C-293 186.03 -293 183.06 -293 180 C-288.38 180 -283.76 180 -279 180 C-279 177.69 -279 175.38 -279 173 C-276.69 173 -274.38 173 -272 173 C-272 170.69 -272 168.38 -272 166 C-269.69 166 -267.38 166 -265 166 C-265 163.69 -265 161.38 -265 159 C-260.38 159 -255.76 159 -251 159 C-251 156.69 -251 154.38 -251 152 C-248.69 152 -246.38 152 -244 152 C-244 149.69 -244 147.38 -244 145 C-239.71 145 -235.42 145 -231 145 C-231.495 142.525 -231.495 142.525 -232 140 C-232 137.36 -232 134.72 -232 132 C-221.77 132 -211.54 132 -201 132 C-201 134.31 -201 136.62 -201 139 C-194.4 139 -187.8 139 -181 139 C-181 136.69 -181 134.38 -181 132 C-167.14 132 -153.28 132 -139 132 C-139 129.69 -139 127.38 -139 125 C-134.38 125 -129.76 125 -125 125 C-125 122.69 -125 120.38 -125 118 C-121.04 118 -117.08 118 -113 118 C-113 116.02 -113 114.04 -113 112 C-109.99686252 110.49843126 -107.20932478 110.90718796 -103.875 110.9375 C-102.59367188 110.94652344 -101.31234375 110.95554687 -99.9921875 110.96484375 C-99.00476563 110.97644531 -98.01734375 110.98804688 -97 111 C-97 108.69 -97 106.38 -97 104 C-94.69 104 -92.38 104 -90 104 C-90 101.69 -90 99.38 -90 97 C-87.69 97 -85.38 97 -83 97 C-83 92.38 -83 87.76 -83 83 C-80.69 83 -78.38 83 -76 83 C-76 80.69 -76 78.38 -76 76 C-74.35 76 -72.7 76 -71 76 C-71 74.02 -71 72.04 -71 70 C-67.535 69.505 -67.535 69.505 -64 69 C-64 67.02 -64 65.04 -64 63 C-63.34 63 -62.68 63 -62 63 C-62 60.36 -62 57.72 -62 55 C-59.69 55 -57.38 55 -55 55 C-55 52.69 -55 50.38 -55 48 C-52.69 48 -50.38 48 -48 48 C-48 45.69 -48 43.38 -48 41 C-45.69 41 -43.38 41 -41 41 C-41 38.69 -41 36.38 -41 34 C-38.69 34 -36.38 34 -34 34 C-34 31.69 -34 29.38 -34 27 C-32.02 27 -30.04 27 -28 27 C-28 24.69 -28 22.38 -28 20 C-25.69 20 -23.38 20 -21 20 C-21 17.69 -21 15.38 -21 13 C-18.69 13 -16.38 13 -14 13 C-14 10.69 -14 8.38 -14 6 C-9.38 6 -4.76 6 0 6 C0 4.02 0 2.04 0 0 Z " fill="#FEF6F6" transform="translate(311,242)"/>
<path d="M0 0 C7.26 0 14.52 0 22 0 C22 2.31 22 4.62 22 7 C31.24 7 40.48 7 50 7 C50 9.31 50 11.62 50 14 C51.39025391 13.98259766 51.39025391 13.98259766 52.80859375 13.96484375 C54.00613281 13.95582031 55.20367188 13.94679687 56.4375 13.9375 C57.63246094 13.92589844 58.82742188 13.91429687 60.05859375 13.90234375 C63 14 63 14 64 15 C64 16.98 64 18.96 64 21 C68.29 21 72.58 21 77 21 C77 23.31 77 25.62 77 28 C79.31 28 81.62 28 84 28 C84 30.31 84 32.62 84 35 C86.31 35 88.62 35 91 35 C91 37.31 91 39.62 91 42 C93.31 42 95.62 42 98 42 C98 44.31 98 46.62 98 49 C100.31 49 102.62 49 105 49 C105 51.31 105 53.62 105 56 C109.62 56 114.24 56 119 56 C119.33 60.29 119.66 64.58 120 69 C121.98 69.33 123.96 69.66 126 70 C126.66 72.31 127.32 74.62 128 77 C129.32 77.33 130.64 77.66 132 78 C132 79.98 132 81.96 132 84 C134.31 84.33 136.62 84.66 139 85 C139 89.29 139 93.58 139 98 C141.31 98.33 143.62 98.66 146 99 C146 100.98 146 102.96 146 105 C148.31 105.33 150.62 105.66 153 106 C153 110.62 153 115.24 153 120 C150.69 120 148.38 120 146 120 C146 117.69 146 115.38 146 113 C143.69 113 141.38 113 139 113 C139 110.69 139 108.38 139 106 C136.69 106 134.38 106 132 106 C132 103.69 132 101.38 132 99 C129.69 99 127.38 99 125 99 C125 96.69 125 94.38 125 92 C120.38 92 115.76 92 111 92 C111 89.69 111 87.38 111 85 C108.69 85 106.38 85 104 85 C104 82.69 104 80.38 104 78 C101.69 78 99.38 78 97 78 C97 75.69 97 73.38 97 71 C94.69 71 92.38 71 90 71 C90 68.69 90 66.38 90 64 C85.38 64 80.76 64 76 64 C76 61.69 76 59.38 76 57 C73.69 57 71.38 57 69 57 C69 54.69 69 52.38 69 50 C64.38 50 59.76 50 55 50 C55 47.69 55 45.38 55 43 C50.38 43 45.76 43 41 43 C41 40.69 41 38.38 41 36 C6.35 36 -28.3 36 -64 36 C-64 38.31 -64 40.62 -64 43 C-68.62 43 -73.24 43 -78 43 C-78 45.31 -78 47.62 -78 50 C-80.31 50 -82.62 50 -85 50 C-85 52.31 -85 54.62 -85 57 C-89.62 57 -94.24 57 -99 57 C-99 59.31 -99 61.62 -99 64 C-101.31 64 -103.62 64 -106 64 C-106 66.31 -106 68.62 -106 71 C-108.31 71 -110.62 71 -113 71 C-113 73.31 -113 75.62 -113 78 C-117.62 78 -122.24 78 -127 78 C-127 80.31 -127 82.62 -127 85 C-129.31 85 -131.62 85 -134 85 C-134 89.62 -134 94.24 -134 99 C-136.31 99 -138.62 99 -141 99 C-141 91.74 -141 84.48 -141 77 C-138.69 77 -136.38 77 -134 77 C-134 74.69 -134 72.38 -134 70 C-131.69 70 -129.38 70 -127 70 C-127 65.71 -127 61.42 -127 57 C-124.69 57 -122.38 57 -120 57 C-120 54.69 -120 52.38 -120 50 C-117.69 50 -115.38 50 -113 50 C-113 47.69 -113 45.38 -113 43 C-108.38 42.67 -103.76 42.34 -99 42 C-98.67 37.38 -98.34 32.76 -98 28 C-93.38 28 -88.76 28 -84 28 C-84 25.69 -84 23.38 -84 21 C-77.07 21 -70.14 21 -63 21 C-63 18.69 -63 16.38 -63 14 C-56.07 14 -49.14 14 -42 14 C-42 11.69 -42 9.38 -42 7 C-28.14 7 -14.28 7 0 7 C0 4.69 0 2.38 0 0 Z " fill="#FEFEFE" transform="translate(570,129)"/>
<path d="M0 0 C0.69349548 -0.00175232 1.38699097 -0.00350464 2.10150146 -0.00531006 C4.37758947 -0.00968558 6.6535988 -0.0068058 8.9296875 -0.00341797 C10.52099624 -0.00409224 12.11230489 -0.0050633 13.70361328 -0.00631714 C17.03223658 -0.00778829 20.36083297 -0.0056583 23.68945312 -0.00097656 C27.94628034 0.00472037 32.20304448 0.00143824 36.45986938 -0.00454903 C39.74390128 -0.00817037 43.02791833 -0.00700882 46.31195068 -0.00442123 C47.88116463 -0.00375632 49.45037994 -0.0045651 51.01959229 -0.00690079 C53.21622259 -0.00945318 55.41275215 -0.00555041 57.609375 0 C59.48085205 0.00119339 59.48085205 0.00119339 61.39013672 0.00241089 C64.61761298 0.12243742 67.63705789 0.51840681 70.8046875 1.12939453 C71.1346875 3.10939453 71.4646875 5.08939453 71.8046875 7.12939453 C76.0946875 7.45939453 80.3846875 7.78939453 84.8046875 8.12939453 C85.7946875 14.06939453 85.7946875 14.06939453 86.8046875 20.12939453 C93.0746875 20.78939453 99.3446875 21.44939453 105.8046875 22.12939453 C105.8046875 24.43939453 105.8046875 26.74939453 105.8046875 29.12939453 C108.1146875 29.12939453 110.4246875 29.12939453 112.8046875 29.12939453 C113.1346875 31.43939453 113.4646875 33.74939453 113.8046875 36.12939453 C115.7846875 36.12939453 117.7646875 36.12939453 119.8046875 36.12939453 C120.1346875 38.43939453 120.4646875 40.74939453 120.8046875 43.12939453 C125.0946875 43.12939453 129.3846875 43.12939453 133.8046875 43.12939453 C133.8046875 50.05939453 133.8046875 56.98939453 133.8046875 64.12939453 C131.4946875 64.12939453 129.1846875 64.12939453 126.8046875 64.12939453 C126.8046875 61.81939453 126.8046875 59.50939453 126.8046875 57.12939453 C122.1846875 57.12939453 117.5646875 57.12939453 112.8046875 57.12939453 C112.8046875 54.81939453 112.8046875 52.50939453 112.8046875 50.12939453 C110.4946875 50.12939453 108.1846875 50.12939453 105.8046875 50.12939453 C105.8046875 47.81939453 105.8046875 45.50939453 105.8046875 43.12939453 C103.4946875 43.12939453 101.1846875 43.12939453 98.8046875 43.12939453 C98.8046875 40.81939453 98.8046875 38.50939453 98.8046875 36.12939453 C94.1846875 36.12939453 89.5646875 36.12939453 84.8046875 36.12939453 C84.8046875 33.81939453 84.8046875 31.50939453 84.8046875 29.12939453 C80.1846875 29.12939453 75.5646875 29.12939453 70.8046875 29.12939453 C70.8046875 26.81939453 70.8046875 24.50939453 70.8046875 22.12939453 C66.1846875 22.12939453 61.5646875 22.12939453 56.8046875 22.12939453 C56.8046875 19.81939453 56.8046875 17.50939453 56.8046875 15.12939453 C36.0146875 15.12939453 15.2246875 15.12939453 -6.1953125 15.12939453 C-6.1953125 17.43939453 -6.1953125 19.74939453 -6.1953125 22.12939453 C-15.4353125 22.12939453 -24.6753125 22.12939453 -34.1953125 22.12939453 C-34.1953125 24.43939453 -34.1953125 26.74939453 -34.1953125 29.12939453 C-38.8153125 29.12939453 -43.4353125 29.12939453 -48.1953125 29.12939453 C-48.1953125 31.43939453 -48.1953125 33.74939453 -48.1953125 36.12939453 C-52.8153125 36.12939453 -57.4353125 36.12939453 -62.1953125 36.12939453 C-62.1953125 38.43939453 -62.1953125 40.74939453 -62.1953125 43.12939453 C-64.5053125 43.12939453 -66.8153125 43.12939453 -69.1953125 43.12939453 C-69.1953125 45.43939453 -69.1953125 47.74939453 -69.1953125 50.12939453 C-73.8153125 50.12939453 -78.4353125 50.12939453 -83.1953125 50.12939453 C-83.1953125 47.81939453 -83.1953125 45.50939453 -83.1953125 43.12939453 C-80.8853125 43.12939453 -78.5753125 43.12939453 -76.1953125 43.12939453 C-76.1953125 38.50939453 -76.1953125 33.88939453 -76.1953125 29.12939453 C-71.5753125 28.79939453 -66.9553125 28.46939453 -62.1953125 28.12939453 C-62.1953125 26.14939453 -62.1953125 24.16939453 -62.1953125 22.12939453 C-60.2153125 21.79939453 -58.2353125 21.46939453 -56.1953125 21.12939453 C-55.8653125 19.14939453 -55.5353125 17.16939453 -55.1953125 15.12939453 C-53.2153125 14.79939453 -51.2353125 14.46939453 -49.1953125 14.12939453 C-48.8653125 12.14939453 -48.5353125 10.16939453 -48.1953125 8.12939453 C-36.53572479 6.89743809 -24.90451689 7.02691731 -13.1953125 7.12939453 C-13.1953125 5.14939453 -13.1953125 3.16939453 -13.1953125 1.12939453 C-8.74228712 0.27047346 -4.53224956 0.00289009 0 0 Z " fill="#FFFEFE" transform="translate(855.1953125,219.87060546875)"/>
<path d="M0 0 C13.86 0 27.72 0 42 0 C42 2.31 42 4.62 42 7 C46.62 7 51.24 7 56 7 C56 9.31 56 11.62 56 14 C58.31 14 60.62 14 63 14 C63 16.31 63 18.62 63 21 C58.38 21 53.76 21 49 21 C49 18.69 49 16.38 49 14 C44.38 14 39.76 14 35 14 C35 11.69 35 9.38 35 7 C25.76 7 16.52 7 7 7 C7 9.31 7 11.62 7 14 C2.38 14 -2.24 14 -7 14 C-7 16.31 -7 18.62 -7 21 C-11.62 21 -16.24 21 -21 21 C-21 18.69 -21 16.38 -21 14 C-18.69 14 -16.38 14 -14 14 C-14 11.69 -14 9.38 -14 7 C-9.38 7 -4.76 7 0 7 C0 4.69 0 2.38 0 0 Z " fill="#FFFFFF" transform="translate(149,389)"/>
<path d="M0 0 C2.64 0 5.28 0 8 0 C8 1.98 8 3.96 8 6 C12.62 6 17.24 6 22 6 C22 10.29 22 14.58 22 19 C21.67 19 21.34 19 21 19 C21 17.35 21 15.7 21 14 C14.07 13.505 14.07 13.505 7 13 C7 11.02 7 9.04 7 7 C4.69 6.67 2.38 6.34 0 6 C0 4.02 0 2.04 0 0 Z " fill="#FDD4D4" transform="translate(667,179)"/>
</svg>
